<svg width="32" height="33" viewBox="0 0 32 33" fill="none" xmlns="http://www.w3.org/2000/svg">
<path fill-rule="evenodd" clip-rule="evenodd" d="M8.73586 9.13772C9.24176 8.63183 10.062 8.63183 10.5679 9.13772L16.129 14.6988L21.69 9.13772C22.1959 8.63183 23.0161 8.63183 23.522 9.13772C24.0279 9.64361 24.0279 10.4638 23.522 10.9697L17.9609 16.5308L23.522 22.0919C24.0279 22.5978 24.0279 23.418 23.522 23.9239C23.0161 24.4298 22.1959 24.4298 21.69 23.9239L16.129 18.3628L10.5679 23.9239C10.062 24.4298 9.24176 24.4298 8.73586 23.9239C8.22997 23.418 8.22997 22.5978 8.73586 22.0919L14.297 16.5308L8.73586 10.9697C8.22997 10.4638 8.22997 9.64361 8.73586 9.13772Z" fill="white" stroke="white" stroke-width="3.109" stroke-linecap="round" stroke-linejoin="round"/>
</svg>
