<svg width="348" height="416" viewBox="0 0 348 416" fill="none" xmlns="http://www.w3.org/2000/svg">
<path d="M71.9959 378.6H75.6119V401H71.6759L60.3479 384.072V401H56.7319V378.6H60.6679L71.9959 395.592V378.6ZM87.8999 401.48C85.3825 401.48 83.3239 400.637 81.7239 398.952C80.1239 397.245 79.3239 395.048 79.3239 392.36C79.3239 389.757 80.1132 387.635 81.6919 385.992C83.2919 384.349 85.3612 383.528 87.8999 383.528C90.4385 383.528 92.5079 384.349 94.1079 385.992C95.7079 387.635 96.5079 389.757 96.5079 392.36C96.5079 395.048 95.7079 397.245 94.1079 398.952C92.5079 400.637 90.4385 401.48 87.8999 401.48ZM87.8999 398.28C89.3932 398.28 90.5985 397.736 91.5159 396.648C92.4545 395.539 92.9239 394.109 92.9239 392.36C92.9239 390.696 92.4545 389.341 91.5159 388.296C90.5985 387.251 89.3932 386.728 87.8999 386.728C86.4492 386.728 85.2545 387.251 84.3159 388.296C83.3985 389.341 82.9399 390.696 82.9399 392.36C82.9399 394.109 83.3985 395.539 84.3159 396.648C85.2545 397.736 86.4492 398.28 87.8999 398.28ZM130.521 378.6V401H126.905V385.288L120.665 401H117.305L111.129 385.448V401H107.513V378.6H111.769L119.033 396.84L126.265 378.6H130.521ZM150.518 397.704H151.382V401H149.878C147.851 401 146.625 400.381 146.198 399.144C145.046 400.595 143.158 401.32 140.534 401.32C138.657 401.32 137.121 400.861 135.926 399.944C134.753 399.027 134.166 397.811 134.166 396.296C134.166 394.952 134.561 393.875 135.35 393.064C136.161 392.253 137.131 391.72 138.262 391.464C139.414 391.187 140.555 390.995 141.686 390.888C142.838 390.76 143.809 390.621 144.598 390.472C145.409 390.323 145.814 390.056 145.814 389.672C145.814 388.691 145.483 387.923 144.822 387.368C144.182 386.813 143.275 386.536 142.102 386.536C140.971 386.536 140.033 386.781 139.286 387.272C138.561 387.741 138.166 388.36 138.102 389.128H134.582C134.753 387.421 135.531 386.067 136.918 385.064C138.305 384.04 140.033 383.528 142.102 383.528C144.385 383.528 146.166 384.125 147.446 385.32C148.726 386.493 149.366 388.147 149.366 390.28V396.488C149.366 397.299 149.75 397.704 150.518 397.704ZM141.238 398.408C142.667 398.408 143.787 398.077 144.598 397.416C145.409 396.755 145.814 395.88 145.814 394.792V392.936C145.622 393.192 145.078 393.373 144.182 393.48C143.286 393.587 142.369 393.661 141.43 393.704C140.513 393.725 139.681 393.939 138.934 394.344C138.187 394.749 137.814 395.347 137.814 396.136C137.814 396.861 138.123 397.427 138.742 397.832C139.361 398.216 140.193 398.408 141.238 398.408ZM163.122 387.4H158.802V395.528C158.802 396.979 159.527 397.704 160.978 397.704H162.834V401H160.978C159.101 401 157.671 400.531 156.69 399.592C155.709 398.653 155.218 397.299 155.218 395.528V387.4H152.21V384.04H155.218V380.04H158.802V384.04H163.122V387.4ZM173.467 401.48C170.886 401.48 168.774 400.637 167.131 398.952C165.51 397.267 164.699 395.091 164.699 392.424C164.699 389.8 165.499 387.667 167.099 386.024C168.699 384.36 170.768 383.528 173.307 383.528C175.568 383.528 177.435 384.168 178.907 385.448C180.379 386.707 181.232 388.413 181.467 390.568H177.915C177.702 389.352 177.179 388.413 176.347 387.752C175.515 387.069 174.502 386.728 173.307 386.728C171.856 386.728 170.662 387.261 169.723 388.328C168.806 389.395 168.347 390.76 168.347 392.424C168.347 394.131 168.827 395.539 169.787 396.648C170.768 397.736 172.027 398.28 173.563 398.28C176.059 398.28 177.51 396.979 177.915 394.376H181.467C181.19 396.637 180.358 398.387 178.971 399.624C177.606 400.861 175.771 401.48 173.467 401.48ZM193.077 383.528C194.976 383.528 196.522 384.093 197.717 385.224C198.912 386.355 199.509 387.827 199.509 389.64V401H195.925V389.736C195.925 388.861 195.605 388.147 194.965 387.592C194.346 387.016 193.536 386.728 192.533 386.728C191.253 386.728 190.208 387.08 189.397 387.784C188.586 388.488 188.17 389.416 188.149 390.568V401H184.501V377H188.149V385.832C189.237 384.296 190.88 383.528 193.077 383.528ZM218.834 391.912V393.64H206.066C206.258 395.112 206.802 396.253 207.698 397.064C208.594 397.875 209.714 398.28 211.058 398.28C213.213 398.28 214.6 397.416 215.218 395.688H218.77C218.365 397.501 217.48 398.92 216.114 399.944C214.77 400.968 213.085 401.48 211.058 401.48C208.434 401.48 206.333 400.648 204.754 398.984C203.176 397.299 202.386 395.165 202.386 392.584C202.386 389.768 203.176 387.56 204.754 385.96C206.354 384.339 208.37 383.528 210.802 383.528C213.192 383.528 215.112 384.285 216.562 385.8C218.034 387.315 218.792 389.352 218.834 391.912ZM210.802 386.728C209.65 386.728 208.669 387.069 207.858 387.752C207.069 388.413 206.525 389.341 206.226 390.536H215.09C214.856 389.363 214.365 388.435 213.618 387.752C212.872 387.069 211.933 386.728 210.802 386.728ZM228.592 401.48C226.331 401.48 224.539 401 223.216 400.04C221.915 399.059 221.211 397.704 221.104 395.976H224.656C224.827 397.576 226.15 398.376 228.624 398.376C229.542 398.376 230.278 398.184 230.832 397.8C231.408 397.416 231.696 396.915 231.696 396.296C231.696 395.784 231.451 395.336 230.96 394.952C230.491 394.568 229.616 394.248 228.336 393.992C227.526 393.821 226.864 393.672 226.352 393.544C225.84 393.395 225.264 393.181 224.624 392.904C223.984 392.627 223.472 392.317 223.088 391.976C222.726 391.635 222.416 391.176 222.16 390.6C221.904 390.024 221.776 389.373 221.776 388.648C221.776 387.133 222.384 385.907 223.6 384.968C224.838 384.008 226.427 383.528 228.368 383.528C230.267 383.528 231.814 383.997 233.008 384.936C234.203 385.853 234.918 387.144 235.152 388.808H231.6C231.344 387.357 230.256 386.632 228.336 386.632C227.44 386.632 226.704 386.824 226.128 387.208C225.574 387.571 225.296 388.051 225.296 388.648C225.296 389.352 225.563 389.875 226.096 390.216C226.63 390.557 227.536 390.856 228.816 391.112C229.563 391.261 230.16 391.4 230.608 391.528C231.078 391.635 231.643 391.827 232.304 392.104C232.966 392.36 233.488 392.659 233.872 393C234.256 393.341 234.587 393.789 234.864 394.344C235.142 394.899 235.28 395.539 235.28 396.264C235.28 397.821 234.662 399.08 233.424 400.04C232.187 401 230.576 401.48 228.592 401.48ZM260.792 378.6H264.856L256.312 391.432V401H252.696V391.432L244.152 378.6H248.216L254.52 387.912L260.792 378.6ZM279.741 391.912V393.64H266.973C267.165 395.112 267.709 396.253 268.605 397.064C269.501 397.875 270.621 398.28 271.965 398.28C274.119 398.28 275.506 397.416 276.125 395.688H279.677C279.271 397.501 278.386 398.92 277.021 399.944C275.677 400.968 273.991 401.48 271.965 401.48C269.341 401.48 267.239 400.648 265.661 398.984C264.082 397.299 263.293 395.165 263.293 392.584C263.293 389.768 264.082 387.56 265.661 385.96C267.261 384.339 269.277 383.528 271.709 383.528C274.098 383.528 276.018 384.285 277.469 385.8C278.941 387.315 279.698 389.352 279.741 391.912ZM271.709 386.728C270.557 386.728 269.575 387.069 268.765 387.752C267.975 388.413 267.431 389.341 267.133 390.536H275.997C275.762 389.363 275.271 388.435 274.525 387.752C273.778 387.069 272.839 386.728 271.709 386.728ZM292.091 387.4H287.771V395.528C287.771 396.979 288.496 397.704 289.947 397.704H291.803V401H289.947C288.069 401 286.64 400.531 285.659 399.592C284.677 398.653 284.187 397.299 284.187 395.528V387.4H281.179V384.04H284.187V380.04H287.771V384.04H292.091V387.4Z" fill="#065BCE"/>
<path d="M106.315 324.572C107.413 324.36 108.484 324.044 109.514 323.627L222.458 277.753C225.616 276.458 228.238 274.275 229.901 271.559C231.564 268.844 232.17 265.753 231.623 262.792L200.508 101.947C199.984 99.2053 198.488 96.7205 196.231 94.8496C193.973 92.9786 191.075 91.8143 187.939 91.5279L63.8294 79.8928C62.2299 79.7589 60.6044 79.8445 59.0087 80.1495C55.0733 80.9157 51.5582 83.0211 49.2446 86.0042C46.931 88.9874 46.001 92.6066 46.6669 96.0659L88.9036 314.391C89.0821 315.358 89.3946 316.299 89.8298 317.196C91.1428 319.933 93.4899 322.15 96.4805 323.489C99.4711 324.832 102.938 325.212 106.315 324.572Z" fill="#01C6D6"/>
<path d="M105.017 73.0787L230.578 84.1856C250.969 85.9896 266.018 103.963 264.214 124.354L253.108 249.915C251.304 270.306 233.334 285.36 212.939 283.555L87.3819 272.449C66.9871 270.645 51.9373 252.671 53.7414 232.28L64.8483 106.719C66.6523 86.3244 84.6666 71.2784 105.017 73.0787Z" fill="#065BCE"/>
<path d="M55.8099 317.665C73.9172 315.916 93.2929 313.283 129.894 285.947C193.791 238.224 227.502 227.742 234.915 244.503C241.428 259.296 208.085 288.607 194.906 306.249C167.009 343.602 178.373 364.685 214.822 353.195C250.772 341.865 269.932 317.233 305.224 343.591" stroke="#FFC930" stroke-width="3.23112" stroke-linecap="round" stroke-linejoin="round"/>
<path d="M285.651 129.449L325.261 108.534L280.045 106.588L317.978 51.5076L263.768 72.0921L253.989 29.3682L235.32 60.4831" stroke="#FFC930" stroke-width="3.23112" stroke-linecap="round" stroke-linejoin="round"/>
<path d="M154.489 217.647L138.066 211.889L127.852 241.01C126.26 245.548 128.644 250.51 133.182 252.102C137.72 253.694 142.682 251.306 144.274 246.772L154.489 217.647Z" fill="white"/>
<path opacity="0.2" d="M129.987 246.797C134.525 248.389 139.487 246.001 141.079 241.463L149.984 216.069L154.489 217.646L144.274 246.771C142.682 251.306 137.72 253.694 133.182 252.102C130.103 251.019 128.031 248.412 127.499 245.429C128.217 245.987 129.061 246.455 129.987 246.797Z" fill="#313131"/>
<path d="M147.053 200.625L154.526 203.247L150.014 216.102L142.545 213.483L147.053 200.625Z" fill="white"/>
<path opacity="0.2" d="M146.358 202.622L147.057 200.625L154.548 203.158L150.007 216.132L148.266 215.499C149.534 210.526 148.76 205.691 146.358 202.622Z" fill="#313131"/>
<path d="M138.066 211.889C136.374 216.39 138.621 221.419 143.121 223.111C147.626 224.804 152.655 222.557 154.347 218.056C154.392 217.919 154.44 217.785 154.489 217.647L138.066 211.889Z" fill="#22172A"/>
<path d="M127.983 154.543C128.466 153.267 129.009 151.995 129.608 150.779L137.687 160.818L149.516 184.423L167.184 183.17L184.637 181.886L195.483 185.387C187.438 200.035 170.602 207.537 154.321 203.71C152.826 203.356 151.346 202.914 149.902 202.37C148.876 201.991 147.86 201.578 146.904 201.109C129.496 192.837 121.276 172.632 127.983 154.543Z" fill="white"/>
<path d="M195.572 130.778C188.059 119.187 161.586 121.036 160.92 121.523L160.86 108.668C179.507 100.016 201.613 108.11 210.276 126.723C218.273 143.938 212.028 164.396 195.807 174.223C194.259 175.161 192.634 175.998 190.967 176.69L184.614 167.238C186.485 166.676 203.428 142.908 195.572 130.778Z" fill="white"/>
<path d="M198.861 128.918C206.341 141.256 202.402 157.31 190.086 164.779C188.368 165.832 186.537 166.654 184.644 167.282L181.784 162.971L189.517 154.635L179.522 151.418L187.791 136.405L162.843 147.639L173.746 126.745L160.957 128.724L160.92 121.504C161.586 121.017 162.263 120.552 162.985 120.121C175.326 112.64 191.38 116.58 198.861 128.918Z" fill="#22172A"/>
<path d="M150.907 156.897L155.37 180.063L167.924 155.755L170.781 172.654L180.612 168.968L179.719 180.294L184.655 181.89C176.695 193.912 160.492 197.222 148.463 189.236C139.126 183.054 134.767 171.583 137.646 160.766L142.154 166.397L150.907 156.897Z" fill="#22172A"/>
<path d="M148.641 233.946L132.498 228.304" stroke="#22172A" stroke-width="3.23112" stroke-linecap="round" stroke-linejoin="round"/>
<path d="M146.859 239.025L130.716 233.382" stroke="#22172A" stroke-width="3.23112" stroke-linecap="round" stroke-linejoin="round"/>
<path d="M145.078 244.105L128.935 238.462" stroke="#22172A" stroke-width="3.23112" stroke-linecap="round" stroke-linejoin="round"/>
<path d="M154.34 203.753C152.848 203.4 151.368 202.957 149.925 202.414C148.898 202.035 147.883 201.622 146.927 201.153" stroke="#313131" stroke-width="3.23112" stroke-linecap="round" stroke-linejoin="round"/>
<path opacity="0.3" d="M72.0015 37.0689C81.6838 37.0689 89.5322 29.2167 89.5322 19.5345C89.5322 9.85219 81.6838 2 72.0015 2C62.3155 2 54.467 9.85219 54.467 19.5345C54.467 29.2167 62.3155 37.0689 72.0015 37.0689Z" fill="#9B9B9B" stroke="white" stroke-width="3.23112" stroke-linecap="round" stroke-linejoin="round"/>
<path opacity="0.3" d="M327.371 300.462C338.764 300.462 348 291.226 348 279.833C348 268.436 338.764 259.2 327.371 259.2C315.974 259.2 306.738 268.436 306.738 279.833C306.738 291.226 315.974 300.462 327.371 300.462Z" fill="#9B9B9B"/>
<path d="M27.7187 298.126C33.2349 298.126 37.7097 293.651 37.7097 288.135C37.7097 282.619 33.2349 278.148 27.7187 278.148C22.2024 278.148 17.7277 282.619 17.7277 288.135C17.7277 293.651 22.2024 298.126 27.7187 298.126Z" stroke="#FFC930" stroke-width="3.23112" stroke-linecap="round" stroke-linejoin="round"/>
<path opacity="0.3" d="M9.19139 150.718C4.11406 150.718 0.00012207 154.835 0.00012207 159.913C0.00012207 164.986 4.11406 169.104 9.19139 169.104C14.2687 169.104 18.3827 164.986 18.3827 159.913C18.3827 154.835 14.2687 150.718 9.19139 150.718Z" fill="#9B9B9B"/>
</svg>
