<svg width="75" height="75" viewBox="0 0 75 75" fill="none" xmlns="http://www.w3.org/2000/svg">
<circle cx="37.5" cy="37.5" r="37.5" transform="rotate(-90 37.5 37.5)" fill="#22172A"/>
<path d="M33.1857 28.0792C33.4675 28.0792 33.7493 28.183 33.9718 28.4055C34.402 28.8357 34.402 29.5476 33.9718 29.9778L25.7547 38.1949L33.9718 46.412C34.402 46.8422 34.402 47.5541 33.9718 47.9843C33.5417 48.4144 32.8297 48.4144 32.3996 47.9843L23.3963 38.981C22.9662 38.5509 22.9662 37.8389 23.3963 37.4088L32.3996 28.4055C32.6221 28.183 32.9039 28.0792 33.1857 28.0792Z" fill="white"/>
<path d="M24.4349 37.0808L49.3978 37.0808C50.006 37.0808 50.5103 37.5851 50.5103 38.1932C50.5103 38.8014 50.006 39.3057 49.3978 39.3057L24.4349 39.3057C23.8268 39.3057 23.3225 38.8014 23.3225 38.1932C23.3225 37.5851 23.8268 37.0808 24.4349 37.0808Z" fill="white"/>
</svg>
