<svg width="25" height="26" viewBox="0 0 25 26" fill="none" xmlns="http://www.w3.org/2000/svg">
<path fill-rule="evenodd" clip-rule="evenodd" d="M8.29979 3.349C8.47253 3.00351 8.82564 2.78528 9.2119 2.78528H15.3305C15.7168 2.78528 16.0699 3.00351 16.2427 3.349L17.4905 5.8446H20.9393C22.3473 5.8446 23.4887 6.98602 23.4887 8.39404V20.6313C23.4887 22.0393 22.3473 23.1808 20.9393 23.1808H3.60315C2.19513 23.1808 1.05371 22.0393 1.05371 20.6313V8.39404C1.05371 6.98602 2.19513 5.8446 3.60315 5.8446H7.05199L8.29979 3.349ZM9.33227 5.8446H15.2102L14.7003 4.82483H9.84216L9.33227 5.8446ZM3.60315 7.88415C3.32154 7.88415 3.09326 8.11243 3.09326 8.39404V20.6313C3.09326 20.9129 3.32154 21.1412 3.60315 21.1412H20.9393C21.2209 21.1412 21.4492 20.9129 21.4492 20.6313V8.39404C21.4492 8.11243 21.2209 7.88415 20.9393 7.88415H3.60315ZM7.17236 14.5127C7.17236 11.6966 9.45519 9.41381 12.2712 9.41381C15.0873 9.41381 17.3701 11.6966 17.3701 14.5127C17.3701 17.3287 15.0873 19.6116 12.2712 19.6116C9.45519 19.6116 7.17236 17.3287 7.17236 14.5127ZM12.2712 11.4534C10.5816 11.4534 9.2119 12.8231 9.2119 14.5127C9.2119 16.2023 10.5816 17.572 12.2712 17.572C13.9609 17.572 15.3305 16.2023 15.3305 14.5127C15.3305 12.8231 13.9609 11.4534 12.2712 11.4534Z" fill="#065BCE"/>
</svg>
