<svg width="30" height="30" viewBox="0 0 30 30" fill="none" xmlns="http://www.w3.org/2000/svg">
<path fill-rule="evenodd" clip-rule="evenodd" d="M15.1969 13.7096C14.2547 13.7096 13.3705 14.0615 12.6892 14.7231C12.0224 15.3707 11.6601 16.2293 11.6746 17.1162V17.1303C11.6746 18.0452 12.0369 18.9039 12.7037 19.5515C13.3705 20.199 14.2547 20.5509 15.1969 20.5509C17.1392 20.5509 18.7047 19.0165 18.7192 17.1303C18.7192 16.2153 18.3568 15.3566 17.69 14.709C17.0232 14.0615 16.139 13.7096 15.1969 13.7096ZM23.328 13.8077C22.6032 13.8077 22.0234 13.2447 22.0234 12.5408C22.0234 11.837 22.6032 11.2598 23.328 11.2598C24.0528 11.2598 24.6471 11.837 24.6471 12.5408C24.6471 13.2447 24.0528 13.8077 23.328 13.8077ZM19.2115 21.0433C18.1823 22.0428 16.7618 22.6621 15.1963 22.6621C13.6744 22.6621 12.2538 22.085 11.1667 21.0433C10.0941 19.9876 9.49979 18.608 9.49979 17.13C9.48529 15.666 10.0796 14.2865 11.1522 13.2307C12.2393 12.1749 13.6744 11.5978 15.1963 11.5978C16.7183 11.5978 18.1533 12.1749 19.226 13.2166C20.2986 14.2724 20.8929 15.666 20.8929 17.13C20.8784 18.6643 20.2406 20.0439 19.2115 21.0433ZM23.3724 7.30426C23.242 7.30426 23.1405 7.23387 23.0825 7.13534L22.9376 6.82565C22.5462 6.02327 22.0968 5.0942 21.8214 4.55929C21.1547 3.29238 20.0096 2.58854 18.6035 2.57446H11.7764C10.3703 2.58854 9.23973 3.29238 8.57296 4.55929C8.28306 5.12236 7.79023 6.13589 7.38437 6.96641L7.2974 7.13534C7.25391 7.24795 7.13795 7.30426 7.02199 7.30426C3.52868 7.30426 0.702148 10.0633 0.702148 13.4417V21.8033C0.702148 25.1818 3.52868 27.9408 7.02199 27.9408H23.3724C26.8512 27.9408 29.6922 25.1818 29.6922 21.8033V13.4417C29.6922 10.0633 26.8512 7.30426 23.3724 7.30426Z" fill="white"/>
</svg>
