<svg width="22" height="22" viewBox="0 0 22 22" fill="none" xmlns="http://www.w3.org/2000/svg">
<path d="M16.0015 7.19695C16.3525 6.84597 16.3525 6.27693 16.0015 5.92595C15.6505 5.57498 15.0815 5.57498 14.7305 5.92595L6.37871 14.2778L2.52056 10.4196C2.16958 10.0686 1.60054 10.0686 1.24956 10.4196C0.898584 10.7706 0.898584 11.3396 1.24956 11.6906L5.74321 16.1843C6.09419 16.5352 6.66323 16.5352 7.01421 16.1843L16.0015 7.19695Z" fill="#065BCE"/>
<path d="M20.4952 7.19695C20.8461 6.84597 20.8461 6.27693 20.4952 5.92595C20.1442 5.57498 19.5751 5.57498 19.2242 5.92595L10.8681 14.282C10.5153 14.0023 10.0012 14.0255 9.67516 14.3515C9.32418 14.7025 9.32418 15.2716 9.67516 15.6225L10.2369 16.1843C10.5878 16.5352 11.1569 16.5352 11.5079 16.1843L20.4952 7.19695Z" fill="#065BCE"/>
<path d="M7.57591 10.9813L7.01421 10.4196C6.66323 10.0686 6.09419 10.0686 5.74321 10.4196C5.39224 10.7706 5.39224 11.3396 5.74321 11.6906L6.30492 12.2523C6.65589 12.6033 7.22494 12.6033 7.57591 12.2523C7.92689 11.9013 7.92689 11.3323 7.57591 10.9813Z" fill="#065BCE"/>
</svg>
