<svg width="58" height="59" viewBox="0 0 58 59" fill="none" xmlns="http://www.w3.org/2000/svg">
<rect x="-0.00933838" y="0.242676" width="57.8692" height="57.8692" rx="12.8598" fill="#ECEBFF"/>
<path d="M28.9252 13.9062C24.8751 13.9062 20.9908 15.5152 18.127 18.379C15.2631 21.2429 13.6542 25.1271 13.6542 29.1773C13.6542 33.2274 15.2631 37.1117 18.127 39.9755C20.9908 42.8394 24.8751 44.4483 28.9252 44.4483L28.9252 29.1773V13.9062Z" fill="#065BCE"/>
<path d="M28.9253 44.4487C32.9754 44.4487 36.8596 42.8398 39.7235 39.976C42.5874 37.1121 44.1963 33.2278 44.1963 29.1777C44.1963 25.1276 42.5874 21.2433 39.7235 18.3795C36.8596 15.5156 32.9754 13.9067 28.9253 13.9067L28.9253 29.1777L28.9253 44.4487Z" fill="#B8B1FF"/>
</svg>
