<svg width="71" height="71" viewBox="0 0 71 71" fill="none" xmlns="http://www.w3.org/2000/svg">
<rect x="1.26047" y="0.71897" width="68.7529" height="68.7529" rx="19.5474" fill="white" stroke="#E8E6EA" stroke-width="1.3481"/>
<path fill-rule="evenodd" clip-rule="evenodd" d="M49.3968 21.3353C49.763 21.7015 49.887 22.2451 49.716 22.7339L40.7511 48.3477C40.5685 48.8694 40.086 49.2268 39.5337 49.2494C38.9814 49.2719 38.4713 48.955 38.2468 48.4499L33.3346 37.3975L22.2822 32.4853C21.7771 32.2608 21.4602 31.7507 21.4828 31.1984C21.5053 30.6462 21.8627 30.1636 22.3844 29.981L47.9982 21.0162C48.487 20.8451 49.0306 20.9691 49.3968 21.3353ZM35.9639 36.6747L39.3296 44.2476L45.2196 27.419L35.9639 36.6747ZM43.3131 25.5125L26.4845 31.4025L34.0574 34.7682L43.3131 25.5125Z" fill="#065BCE"/>
</svg>
