<svg width="40" height="26" viewBox="0 0 40 26" fill="none" xmlns="http://www.w3.org/2000/svg">
<path d="M37.7726 2.73468C37.1681 2.41661 36.4855 2.26683 35.7995 2.30173C35.1135 2.33662 34.4506 2.55486 33.8833 2.93254L26.6661 7.65492V3.9C26.6649 2.86601 26.2431 1.87471 25.4933 1.14358C24.7434 0.412437 23.7267 0.00116986 22.6662 0H3.99992C2.93944 0.00116986 1.92275 0.412437 1.17288 1.14358C0.423004 1.87471 0.00119984 2.86601 0 3.9V22.1C0.00119984 23.134 0.423004 24.1253 1.17288 24.8564C1.92275 25.5876 2.93944 25.9988 3.99992 26H22.6662C23.7267 25.9988 24.7434 25.5876 25.4933 24.8564C26.2431 24.1253 26.6649 23.134 26.6661 22.1V18.3448L33.8847 23.0675C34.4506 23.4477 35.1136 23.6675 35.7999 23.7024C36.4863 23.7373 37.1691 23.586 37.7726 23.2653C38.4598 22.8932 39.0301 22.3457 39.4224 21.6815C39.8147 21.0174 40.0141 20.2616 39.9992 19.4953V6.5052C40.0142 5.73883 39.8148 4.98295 39.4225 4.31868C39.0303 3.65441 38.4599 3.10682 37.7726 2.73468ZM23.9995 22.1C23.9991 22.4447 23.8585 22.7751 23.6085 23.0188C23.3586 23.2625 23.0197 23.3996 22.6662 23.4H3.99992C3.64644 23.3996 3.30755 23.2625 3.0576 23.0188C2.80765 22.7751 2.66704 22.4447 2.66661 22.1V3.9C2.66704 3.55535 2.80765 3.22493 3.0576 2.98122C3.30755 2.73751 3.64644 2.60041 3.99992 2.6H22.6662C23.0197 2.60041 23.3586 2.73751 23.6085 2.98122C23.8585 3.22493 23.9991 3.55535 23.9995 3.9V22.1ZM37.3326 19.4948C37.347 19.7901 37.2788 20.0836 37.1352 20.3439C36.9916 20.6043 36.778 20.8216 36.5174 20.9726C36.3402 21.0703 36.1378 21.1163 35.9345 21.1051C35.7313 21.0938 35.5356 21.0258 35.3708 20.9092L26.6661 15.2142V10.7858L35.3692 5.09184C35.535 4.9769 35.7308 4.90997 35.9339 4.89874C36.1371 4.88752 36.3393 4.93246 36.5174 5.0284C36.7779 5.17937 36.9913 5.39654 37.1349 5.65667C37.2785 5.9168 37.3468 6.21011 37.3326 6.5052V19.4948Z" fill="#065BCE"/>
</svg>
