<svg width="277" height="82" viewBox="0 0 277 82" fill="none" xmlns="http://www.w3.org/2000/svg">
<path d="M225.754 0.00966417H19.5491C18.7951 0.00966417 18.0557 0.00966521 17.3066 0.0144981C16.6783 0.019331 16.0549 0.0289946 15.4218 0.0386604C14.0444 0.0531591 12.6719 0.173982 11.3138 0.401128C9.95577 0.633107 8.64605 1.06324 7.41849 1.68668C6.19094 2.31496 5.07454 3.13172 4.0983 4.10313C3.12205 5.07454 2.30529 6.19577 1.68185 7.42816C1.0584 8.65572 0.628278 9.97027 0.401131 11.3283C0.173985 12.6864 0.0483251 14.0541 0.0338264 15.4314C0.0144949 16.0597 0.0096658 16.688 0 17.3211V64.698C0.0096658 65.3359 0.0144949 65.9497 0.0338264 66.5877C0.0483251 67.9602 0.173985 69.3327 0.401131 70.6908C0.628278 72.0488 1.0584 73.3682 1.68185 74.5958C2.30529 75.8185 3.11722 76.9397 4.0983 77.9015C5.06971 78.8777 6.18611 79.6945 7.41366 80.3179C8.64122 80.9414 9.95577 81.3763 11.309 81.6131C12.667 81.8354 14.0396 81.9563 15.4169 81.9756C16.0501 81.9901 16.6735 81.9949 17.3018 81.9949C18.0509 81.9998 18.7951 81.9998 19.5442 81.9998H257.284C258.019 81.9998 258.768 81.9998 259.507 81.9949C260.131 81.9949 260.773 81.9853 261.397 81.9708C262.769 81.9563 264.142 81.8355 265.495 81.6083C266.858 81.3763 268.173 80.9365 269.405 80.3131C270.633 79.6896 271.754 78.8729 272.72 77.8966C273.697 76.9301 274.513 75.8088 275.142 74.5909C275.76 73.3634 276.19 72.044 276.413 70.686C276.64 69.3279 276.766 67.9602 276.795 66.5828C276.804 65.9449 276.804 65.3311 276.804 64.6932C276.819 63.9489 276.819 63.2095 276.819 62.4507V19.5539C276.819 18.8048 276.819 18.0605 276.804 17.3163C276.804 16.688 276.804 16.0597 276.795 15.4266C276.77 14.0541 276.645 12.6815 276.413 11.3235C276.19 9.96544 275.76 8.65089 275.142 7.42333C273.875 4.95855 271.87 2.94807 269.405 1.68185C268.173 1.0584 266.853 0.628277 265.495 0.396297C264.137 0.169151 262.769 0.0483288 261.397 0.0338301C260.773 0.0241643 260.131 0.00966314 259.507 0.00483024C258.773 -2.65468e-06 258.024 0 257.284 0H225.754V0.00966417Z" fill="#CCCED3"/>
<path d="M17.316 80.2069C16.6926 80.2069 16.0837 80.1973 15.465 80.1876C14.1795 80.1683 12.8988 80.0571 11.6326 79.8541C10.4485 79.6512 9.30793 79.2694 8.23502 78.7281C7.17662 78.1916 6.21004 77.4909 5.37395 76.6451C4.52336 75.809 3.81775 74.8424 3.2813 73.784C2.74002 72.716 2.36305 71.5705 2.16974 70.3865C1.96192 69.1154 1.84593 67.8299 1.83143 66.5443C1.81694 66.1142 1.79761 64.674 1.79761 64.674V17.3261C1.79761 17.3261 1.81694 15.9052 1.83143 15.4944C1.84593 14.2089 1.96192 12.9233 2.16974 11.6571C2.36305 10.4731 2.74002 9.32282 3.28614 8.24992C3.82259 7.18668 4.52336 6.2201 5.36912 5.38401C6.21004 4.53825 7.18146 3.83265 8.23986 3.28653C9.30793 2.75008 10.4485 2.37312 11.6277 2.17497C12.8988 1.96715 14.1843 1.85116 15.4699 1.83666L17.3209 1.8125H259.502L261.373 1.8415C262.648 1.85599 263.924 1.96715 265.181 2.17497C266.37 2.37795 267.525 2.75491 268.607 3.30103C270.734 4.3981 272.464 6.13311 273.556 8.25958C274.088 9.32765 274.46 10.4634 274.653 11.6378C274.866 12.9185 274.987 14.2089 275.011 15.5041C275.016 16.084 275.016 16.7075 275.016 17.3309C275.03 18.0994 275.03 18.8291 275.03 19.5686V62.4654C275.03 63.2096 275.03 63.9346 275.016 64.6692C275.016 65.3361 275.016 65.9451 275.006 66.5733C274.982 67.8444 274.866 69.1154 274.658 70.372C274.47 71.5609 274.093 72.716 273.551 73.7937C273.01 74.8424 272.309 75.8042 271.468 76.6354C270.632 77.4812 269.661 78.1916 268.598 78.7329C267.52 79.279 266.37 79.6608 265.181 79.859C263.915 80.062 262.634 80.1779 261.348 80.1924C260.749 80.2069 260.121 80.2166 259.507 80.2166L257.284 80.2214L17.316 80.2069Z" fill="#FBFBFB"/>
<path d="M67.0079 40.7797C67.0562 37.1647 68.9507 33.8252 72.0293 31.9307C70.0768 29.1421 66.9257 27.4361 63.5234 27.3297C59.9422 26.9528 56.477 29.4707 54.6502 29.4707C52.7895 29.4707 49.9816 27.3636 46.9611 27.4264C42.9836 27.5569 39.3637 29.7655 37.4257 33.2404C33.3033 40.3786 36.377 50.866 40.3255 56.6364C42.3021 59.4637 44.6123 62.6147 47.6328 62.5036C50.5906 62.3828 51.6925 60.6188 55.264 60.6188C58.7968 60.6188 59.8359 62.5036 62.9193 62.4311C66.0897 62.3828 68.0905 59.5942 69.9946 56.7428C71.4155 54.7274 72.5077 52.5043 73.2327 50.1507C69.463 48.5607 67.0127 44.8683 67.0079 40.7797ZM61.1891 23.5359C62.9193 21.4578 63.7699 18.79 63.5669 16.0933C60.9233 16.3687 58.4827 17.635 56.7283 19.6309C54.9982 21.6028 54.1186 24.1787 54.2926 26.7933C56.9651 26.8223 59.5073 25.6189 61.1891 23.5359Z" fill="#010202"/>
<path d="M102.482 55.6412H92.7821L90.4478 62.5184H86.3398L95.5272 37.0635H99.7946L108.987 62.5184H104.806L102.482 55.6412ZM93.7825 52.466H101.472L97.6778 41.302H97.5715C97.5763 41.302 93.7825 52.466 93.7825 52.466ZM128.836 53.2392C128.836 59.0049 125.747 62.7117 121.088 62.7117C118.682 62.8374 116.415 61.576 115.25 59.464H115.163V68.6562H111.355V43.9601H115.042V47.0483H115.11C116.323 44.9508 118.595 43.6894 121.021 43.7668C125.733 43.7716 128.836 47.4929 128.836 53.2392ZM124.921 53.2392C124.921 49.4841 122.978 47.0145 120.015 47.0145C117.106 47.0145 115.149 49.5372 115.149 53.2441C115.149 56.9847 117.106 59.4882 120.015 59.4882C122.978 59.4882 124.921 57.0331 124.921 53.2392ZM149.259 53.2392C149.259 59.0049 146.171 62.7117 141.512 62.7117C139.105 62.8374 136.839 61.576 135.674 59.464H135.587V68.6562H131.779V43.9601H135.466V47.0483H135.534C136.752 44.9508 139.018 43.6894 141.445 43.7668C146.157 43.7716 149.259 47.4929 149.259 53.2392ZM145.345 53.2392C145.345 49.4841 143.402 47.0145 140.439 47.0145C137.53 47.0145 135.573 49.5372 135.573 53.2441C135.573 56.9847 137.53 59.4882 140.439 59.4882C143.402 59.4882 145.345 57.0331 145.345 53.2392ZM162.758 55.4285C163.043 57.9513 165.493 59.609 168.842 59.609C172.051 59.609 174.361 57.9513 174.361 55.675C174.361 53.6984 172.97 52.5191 169.669 51.7072L166.368 50.9146C161.694 49.7837 159.524 47.5992 159.524 44.0519C159.524 39.6588 163.352 36.6431 168.784 36.6431C174.163 36.6431 177.851 39.6588 177.976 44.0519H174.129C173.897 41.5098 171.8 39.9778 168.731 39.9778C165.662 39.9778 163.565 41.5291 163.565 43.7861C163.565 45.5888 164.908 46.6423 168.19 47.4543L170.993 48.1454C176.217 49.3778 178.382 51.4801 178.382 55.2014C178.382 59.9618 174.589 62.9485 168.557 62.9485C162.912 62.9485 159.099 60.0343 158.853 55.4334C158.857 55.4285 162.758 55.4285 162.758 55.4285ZM186.613 39.5718V43.9649H190.141V46.9806H186.613V57.2119C186.613 58.8019 187.318 59.5413 188.87 59.5413C189.29 59.5317 189.706 59.5027 190.121 59.4543V62.4507C189.421 62.5812 188.715 62.6392 188.005 62.6296C184.25 62.6296 182.78 61.2184 182.78 57.6227V46.9855H180.079V43.9697H182.78V39.5718H186.613ZM192.18 53.2392C192.18 47.4011 195.621 43.7329 200.981 43.7329C206.36 43.7329 209.787 47.4011 209.787 53.2392C209.787 59.0967 206.379 62.7455 200.981 62.7455C195.587 62.7504 192.18 59.0967 192.18 53.2392ZM205.906 53.2392C205.906 49.2328 204.069 46.8695 200.981 46.8695C197.898 46.8695 196.061 49.2521 196.061 53.2392C196.061 57.2602 197.898 59.6042 200.981 59.6042C204.069 59.609 205.906 57.265 205.906 53.2392ZM212.928 43.9601H216.562V47.116H216.649C217.157 45.0813 219.017 43.6846 221.11 43.7619C221.55 43.7619 221.99 43.8103 222.415 43.9021V47.4639C221.859 47.2948 221.284 47.2174 220.704 47.2319C219.583 47.1885 218.5 47.6331 217.737 48.4547C216.973 49.2763 216.606 50.3878 216.736 51.5042V62.5087H212.923V43.9601H212.928ZM239.982 57.0669C239.47 60.4354 236.189 62.7455 231.994 62.7455C226.595 62.7455 223.246 59.1305 223.246 53.3262C223.246 47.5074 226.615 43.7281 231.834 43.7281C236.967 43.7281 240.195 47.2561 240.195 52.8816V54.1865H227.088V54.4185C226.967 55.8007 227.441 57.1684 228.398 58.1736C229.355 59.1789 230.694 59.725 232.081 59.6767C233.932 59.8506 235.672 58.7874 236.367 57.0669H239.982ZM227.103 51.5284H236.382C236.45 50.2863 236 49.0733 235.135 48.1792C234.27 47.2851 233.071 46.7922 231.829 46.8163C230.578 46.8067 229.374 47.2996 228.485 48.1889C227.601 49.0733 227.098 50.2767 227.103 51.5284Z" fill="#010202"/>
<path d="M93.3086 17.9059C94.9276 17.7899 96.508 18.4037 97.6244 19.5829C98.7408 20.7573 99.2676 22.3715 99.0646 23.9808C99.0646 27.8906 96.9526 30.1331 93.3086 30.1331H88.8914V17.901H93.3086V17.9059ZM90.7907 28.4078H93.096C94.251 28.4754 95.3771 28.0211 96.16 27.1705C96.943 26.3199 97.3006 25.1552 97.1314 24.0098C97.2861 22.8693 96.9285 21.719 96.1455 20.8733C95.3626 20.0275 94.2462 19.5732 93.096 19.636H90.7907V28.4078ZM101.206 25.5177C101.046 23.86 101.839 22.2603 103.25 21.3856C104.661 20.506 106.449 20.506 107.86 21.3856C109.272 22.2603 110.064 23.86 109.905 25.5177C110.064 27.1754 109.277 28.7751 107.86 29.6546C106.449 30.5342 104.661 30.5342 103.245 29.6546C101.839 28.7799 101.046 27.1754 101.206 25.5177ZM108.039 25.5177C108.039 23.5169 107.14 22.3473 105.565 22.3473C103.98 22.3473 103.09 23.5169 103.09 25.5177C103.09 27.5378 103.98 28.6977 105.565 28.6977C107.14 28.6977 108.039 27.5282 108.039 25.5177ZM121.484 30.1379H119.595L117.686 23.3429H117.541L115.641 30.1379H113.771L111.224 20.9071H113.07L114.723 27.9486H114.859L116.753 20.9071H118.503L120.397 27.9486H120.542L122.185 20.9071H124.007L121.484 30.1379ZM126.158 20.9071H127.912V22.3715H128.047C128.521 21.2937 129.628 20.6316 130.802 20.7283C131.711 20.6606 132.605 21.0086 133.224 21.6755C133.847 22.3425 134.132 23.2559 133.997 24.1596V30.1331H132.175V24.6139C132.175 23.1302 131.532 22.3956 130.184 22.3956C129.565 22.3666 128.966 22.6083 128.545 23.0577C128.12 23.5072 127.917 24.121 127.98 24.7348V30.1331H126.158V20.9071ZM136.901 17.3018H138.723V30.1331H136.901V17.3018ZM141.251 25.5177C141.091 23.86 141.884 22.2603 143.3 21.3856C144.711 20.506 146.499 20.506 147.911 21.3856C149.322 22.2603 150.119 23.86 149.96 25.5177C150.119 27.1754 149.332 28.7751 147.916 29.6546C146.499 30.5342 144.711 30.5342 143.3 29.6546C141.884 28.7799 141.091 27.1754 141.251 25.5177ZM148.085 25.5177C148.085 23.5169 147.186 22.3473 145.61 22.3473C144.025 22.3473 143.136 23.5169 143.136 25.5177C143.136 27.5378 144.025 28.6977 145.61 28.6977C147.186 28.6977 148.085 27.5282 148.085 25.5177ZM151.879 27.5282C151.879 25.8657 153.116 24.9087 155.31 24.7734L157.808 24.6284V23.831C157.808 22.8548 157.166 22.3086 155.919 22.3086C154.904 22.3086 154.198 22.6808 153.995 23.3332H152.231C152.415 21.748 153.908 20.7331 156.001 20.7331C158.316 20.7331 159.621 21.8833 159.621 23.8358V30.1428H157.866V28.8427H157.721C157.127 29.79 156.064 30.3458 154.947 30.2926C154.164 30.3747 153.382 30.1186 152.797 29.5918C152.217 29.065 151.879 28.3159 151.879 27.5282ZM157.808 26.7404V25.9671L155.552 26.1121C154.28 26.1991 153.705 26.6293 153.705 27.446C153.705 28.2773 154.425 28.7606 155.416 28.7606C156.001 28.8186 156.591 28.6397 157.04 28.2579C157.494 27.8713 157.77 27.3252 157.808 26.7404ZM162.018 25.5177C162.018 22.5986 163.516 20.7524 165.85 20.7524C167.025 20.6993 168.132 21.3276 168.682 22.3715H168.818V17.3018H170.64V30.1379H168.895V28.6784H168.75C168.161 29.7126 167.039 30.3361 165.85 30.2878C163.502 30.2878 162.018 28.4416 162.018 25.5177ZM163.898 25.5177C163.898 27.475 164.821 28.6542 166.363 28.6542C167.9 28.6542 168.847 27.4605 168.847 25.5274C168.847 23.6039 167.885 22.3908 166.363 22.3908C164.836 22.3908 163.898 23.5749 163.898 25.5177ZM178.174 25.5177C178.015 23.86 178.807 22.2603 180.219 21.3856C181.63 20.506 183.418 20.506 184.829 21.3856C186.24 22.2603 187.033 23.86 186.874 25.5177C187.033 27.1754 186.245 28.7751 184.829 29.6546C183.418 30.5342 181.63 30.5342 180.214 29.6546C178.803 28.7799 178.01 27.1754 178.174 25.5177ZM185.008 25.5177C185.008 23.5169 184.109 22.3473 182.534 22.3473C180.948 22.3473 180.059 23.5169 180.059 25.5177C180.059 27.5378 180.948 28.6977 182.534 28.6977C184.109 28.6977 185.008 27.5282 185.008 25.5177ZM189.324 20.9071H191.078V22.3715H191.213C191.687 21.2937 192.794 20.6316 193.968 20.7283C194.877 20.6606 195.771 21.0086 196.389 21.6755C197.013 22.3425 197.293 23.2559 197.163 24.1596V30.1331H195.341V24.6139C195.341 23.1302 194.698 22.3956 193.35 22.3956C192.731 22.3666 192.137 22.6083 191.711 23.0577C191.291 23.5072 191.083 24.121 191.151 24.7348V30.1331H189.329V20.9071H189.324ZM207.457 18.6115V20.9506H209.458V22.4826H207.457V27.2285C207.457 28.1951 207.853 28.6204 208.762 28.6204C208.994 28.6204 209.226 28.6059 209.458 28.5769V30.0944C209.129 30.1524 208.8 30.1863 208.467 30.1911C206.442 30.1911 205.635 29.4758 205.635 27.6973V22.4826H204.166V20.9506H205.63V18.6115H207.457ZM211.942 17.3018H213.749V22.386H213.894C214.387 21.2986 215.513 20.6365 216.707 20.7331C217.611 20.6848 218.49 21.0424 219.109 21.7045C219.723 22.3715 220.008 23.2752 219.887 24.1741V30.1331H218.065V24.6188C218.065 23.1447 217.379 22.3956 216.093 22.3956C215.46 22.3425 214.837 22.5745 214.387 23.0287C213.938 23.4782 213.715 24.1065 213.769 24.7396V30.1331H211.947V17.3018H211.942ZM230.505 27.6442C229.993 29.384 228.311 30.5101 226.503 30.3119C225.276 30.3457 224.092 29.8335 223.27 28.9152C222.449 27.997 222.072 26.7646 222.241 25.5467C222.076 24.324 222.453 23.0867 223.27 22.1637C224.087 21.2357 225.261 20.7138 226.498 20.7235C229.065 20.7235 230.616 22.4778 230.616 25.3775V26.0106H224.101V26.1121C224.043 26.7984 224.28 27.475 224.744 27.9776C225.213 28.4802 225.87 28.7654 226.556 28.7557C227.451 28.862 228.316 28.4223 228.755 27.6345L230.505 27.6442ZM224.101 24.6719H228.765C228.809 24.0437 228.591 23.4299 228.156 22.9756C227.726 22.5165 227.117 22.27 226.489 22.2796C225.851 22.27 225.237 22.5213 224.788 22.9756C224.338 23.4202 224.092 24.034 224.101 24.6719Z" fill="#010202"/>
</svg>
