<svg width="161" height="65" viewBox="0 0 161 65" fill="none" xmlns="http://www.w3.org/2000/svg">
<path d="M10.3176 13.7099C14.0669 13.7099 17.1063 10.6409 17.1063 6.85496C17.1063 3.06907 14.0669 0 10.3176 0C6.56833 0 3.52893 3.06907 3.52893 6.85496C3.52893 10.6409 6.56833 13.7099 10.3176 13.7099Z" fill="url(#paint0_linear_1106_327)"/>
<path d="M43.8049 13.7099C47.5542 13.7099 50.5936 10.6409 50.5936 6.85496C50.5936 3.06907 47.5542 0 43.8049 0C40.0556 0 37.0162 3.06907 37.0162 6.85496C37.0162 10.6409 40.0556 13.7099 43.8049 13.7099Z" fill="url(#paint1_linear_1106_327)"/>
<path d="M25.3385 23.0129L20.8531 27.5353L19.2817 25.9486C17.8529 24.5059 15.9439 23.7098 13.9205 23.7098C11.897 23.7098 9.99469 24.5073 8.55919 25.9486C7.13041 27.3981 6.34069 29.319 6.34069 31.3622C6.34069 33.4054 7.13041 35.3263 8.55919 36.7758L11.4732 39.7183C10.253 40.9437 7.22459 44.4011 5.04241 42.2696C5.02761 42.2628 5.01416 42.2478 4.99936 42.2329L4.08048 41.2982C-1.36016 35.8113 -1.36016 26.9118 4.08048 21.4248C6.8008 18.678 10.3606 17.3086 13.9205 17.3086C17.4803 17.3086 21.0482 18.678 23.7685 21.4248L25.3399 23.0116L25.3385 23.0129Z" fill="url(#paint2_linear_1106_327)"/>
<path d="M15.9587 44.2475L11.4733 48.7699L6.9946 44.2475L5.04248 42.2695C7.22466 44.401 10.2531 40.9436 11.4733 39.7183L15.9587 44.2475Z" fill="#016CFC"/>
<path d="M11.4718 39.7183C16.0864 35.1021 29.5952 21.4248 29.5952 21.4248C35.0291 15.9378 43.8425 15.9378 49.2832 21.4248C52.0035 24.1717 53.3596 27.7662 53.3596 31.3608C53.3596 34.9554 52.0035 38.55 49.2832 41.2968L26.6811 64.1196L22.1957 59.5971L26.6811 55.0747L37.3969 44.2461L44.7964 36.7744C46.2319 35.3249 47.0216 33.4121 47.0216 31.3608C47.0216 29.3095 46.2319 27.3967 44.7964 25.9472C43.3676 24.5045 41.4666 23.7071 39.4351 23.7071C37.4036 23.7071 35.5094 24.5045 34.0739 25.9472L15.9586 44.2475" fill="url(#paint3_linear_1106_327)"/>
<path d="M92.4246 10.44H92.4246L92.4245 10.4347C92.3876 8.33958 91.7888 6.6519 90.7143 5.48488C89.6366 4.31445 88.1097 3.7 86.2854 3.7C84.6015 3.7 83.0139 4.31658 81.8475 5.51158C80.6798 6.70781 79.9539 8.46291 79.9539 10.7043C79.9539 12.6803 80.6009 14.4031 81.7563 15.6344C82.9134 16.8676 84.5625 17.5884 86.5257 17.5884C89.5663 17.5884 91.7609 15.8399 92.3695 13.0757L92.4498 12.7112H92.0765H90.1301H89.9109L89.8443 12.92C89.5975 13.6942 89.177 14.2734 88.6243 14.6608C88.0704 15.0491 87.3644 15.2583 86.5257 15.2583C85.3171 15.2583 84.3607 14.826 83.6893 14.0914C83.069 13.4125 82.6739 12.4551 82.5691 11.2927H92.1246H92.4246V10.9927V10.44ZM89.6719 9.0346H82.7379C82.9602 8.11601 83.3756 7.39883 83.9252 6.89807C84.5415 6.33663 85.3447 6.03014 86.2854 6.03014C87.2349 6.03014 88.0047 6.34639 88.5809 6.90898C89.0965 7.41246 89.4733 8.12942 89.6719 9.0346Z" fill="black" stroke="black" stroke-width="0.6"/>
<path d="M67.6166 17.3243H67.8447L67.9057 17.1045L70.3079 8.43928L72.7101 17.1045L72.7711 17.3243H72.9992H75.1859H75.41L75.4736 17.1095L79.2463 4.37378L79.3604 3.98857H78.9586H76.9161H76.6896L76.6276 4.20643L74.0121 13.3929L71.462 4.20832L71.401 3.98857H71.173H69.4428H69.2145L69.1537 4.20867L66.6025 13.4404L63.9642 4.20616L63.902 3.98857H63.6757H61.6332H61.2314L61.3455 4.37378L65.1182 17.1095L65.1818 17.3243H65.4058H67.6166Z" fill="black" stroke="black" stroke-width="0.6"/>
<path d="M154.988 39.621H155.288V39.321V32.6408C155.288 31.391 155.659 30.4367 156.315 29.7943C156.972 29.1511 157.952 28.7836 159.241 28.7836H159.674H159.974V28.4836V26.5132V26.2132H159.674H159.241C157.387 26.2132 155.959 26.8568 155.031 28.0975L154.878 26.5557L154.851 26.2853H154.579H152.994H152.694V26.5853V39.321V39.621H152.994H154.988Z" fill="black" stroke="black" stroke-width="0.6"/>
<path d="M138.955 26.2854H138.655V26.5854V35.092C138.655 36.4598 139.125 37.6653 140.024 38.5283C140.922 39.3909 142.221 39.8855 143.833 39.8855C145.379 39.8855 146.79 39.3312 147.738 38.2334L147.835 39.3474L147.859 39.6212H148.134H149.72H150.02V39.3212V26.5854V26.2854H149.72H147.726H147.426V26.5854V34.3211C147.414 35.2153 147.107 36.0142 146.544 36.588C145.983 37.1599 145.145 37.5314 144.025 37.5314C143.176 37.5314 142.484 37.2994 142.009 36.8845C141.539 36.4744 141.249 35.8585 141.249 35.0199V26.5854V26.2854H140.949H138.955Z" fill="black" stroke="black" stroke-width="0.6"/>
<path d="M123.791 32.833C123.791 34.8091 124.347 36.5732 125.457 37.8479C126.571 39.1282 128.22 39.8853 130.339 39.8853C132.195 39.8853 133.84 39.2734 135.02 38.068C136.2 36.8625 136.886 35.0931 136.886 32.833C136.886 30.9719 136.322 29.2622 135.209 28.0137C134.093 26.7605 132.447 25.9969 130.339 25.9969C128.543 25.9969 126.901 26.5901 125.708 27.7553C124.512 28.9224 123.791 30.6382 123.791 32.833ZM134.244 32.833C134.244 34.1644 133.885 35.35 133.223 36.1955C132.568 37.0334 131.604 37.5552 130.339 37.5552C129.264 37.5552 128.296 37.1484 127.594 36.3688C126.89 35.5878 126.433 34.4091 126.433 32.833C126.433 31.4597 126.831 30.333 127.507 29.5544C128.18 28.7797 129.147 28.327 130.339 28.327C131.53 28.327 132.497 28.7797 133.17 29.5544C133.846 30.333 134.244 31.4597 134.244 32.833Z" fill="black" stroke="black" stroke-width="0.6"/>
<path d="M111.146 44.1272V44.4272H111.446H113.488C114.613 44.4272 115.51 44.2361 116.205 43.8413C116.906 43.4424 117.376 42.8492 117.662 42.0949L117.662 42.0929L123.381 26.6899L123.532 26.2854H123.1H121.058H120.849L120.776 26.481L117.064 36.4784L113.216 26.4777L113.142 26.2854H112.936H110.797H110.355L110.518 26.696L115.564 39.4317L115.639 39.6212H115.843H115.894L115.346 41.1142C115.346 41.1146 115.346 41.1149 115.346 41.1152C115.218 41.4561 115.043 41.7004 114.777 41.8663C114.506 42.036 114.105 42.1451 113.488 42.1451H111.446H111.146V42.4451V44.1272Z" fill="black" stroke="black" stroke-width="0.6"/>
<path d="M101.216 20.9988H100.916V21.2988V27.643C99.9097 26.6086 98.445 25.997 96.7702 25.997C94.98 25.997 93.4551 26.7054 92.3813 27.9316C91.3102 29.1549 90.7031 30.8751 90.7031 32.8812C90.7031 34.9226 91.3158 36.6723 92.3922 37.9164C93.4713 39.1638 95.0023 39.8855 96.7942 39.8855C98.6462 39.8855 100.207 39.0933 101.188 37.7894L101.325 39.3475L101.349 39.6211H101.624H103.21H103.51V39.3211V21.2988V20.9988H103.21H101.216ZM100.916 32.8331C100.916 34.2559 100.511 35.4403 99.8389 36.2628C99.1705 37.081 98.2277 37.5553 97.1066 37.5553C96.0104 37.5553 95.0857 37.0877 94.4289 36.2785C93.7686 35.465 93.3696 34.2924 93.3696 32.8812C93.3696 31.4973 93.7787 30.3509 94.4573 29.5555C95.1328 28.7637 96.0885 28.3031 97.2268 28.3031C98.3137 28.3031 99.2266 28.755 99.8731 29.537C100.523 30.3231 100.916 31.4587 100.916 32.8331Z" fill="black" stroke="black" stroke-width="0.6"/>
<path d="M79.7541 39.621H80.0541V39.321V31.5853C80.0657 30.684 80.3933 29.8784 80.97 29.299C81.5455 28.7207 82.3857 28.351 83.4547 28.351C84.3576 28.351 85.0458 28.6154 85.5063 29.055C85.9654 29.4932 86.2305 30.1361 86.2305 30.9586V39.321V39.621H86.5305H88.525H88.825V39.321V30.8866C88.825 29.4144 88.3455 28.1859 87.4811 27.3249C86.6171 26.4641 85.395 25.9969 83.9593 25.9969C82.2721 25.9969 80.7504 26.6674 79.7622 27.7506L79.6442 26.5557L79.6174 26.2852H79.3456H77.7596H77.4596V26.5852V39.321V39.621H77.7596H79.7541Z" fill="black" stroke="black" stroke-width="0.6"/>
<path d="M74.4976 39.6203H74.7976V39.3203V26.5845V26.2845H74.4976H72.5032H72.2032V26.5845V39.3203V39.6203H72.5032H74.4976ZM71.7226 22.956C71.7226 23.9628 72.5057 24.7459 73.5124 24.7459C74.5255 24.7459 75.2782 23.9563 75.2782 22.956C75.2782 21.9493 74.5192 21.1902 73.5124 21.1902C72.5122 21.1902 71.7226 21.9429 71.7226 22.956Z" fill="black" stroke="black" stroke-width="0.6"/>
<path d="M66.2003 39.6211H66.5003V39.3211V28.5675H70.3334H70.6334V28.2675V26.5854V26.2854H70.3334H66.5003V24.8072C66.5003 24.2633 66.6337 23.8885 66.8446 23.6523C67.0507 23.4216 67.3688 23.2809 67.8344 23.2809H70.6699H70.9699V22.9809V21.2988V20.9988H70.6699H67.8344C66.6077 20.9988 65.6149 21.3184 64.9286 21.9811C64.2406 22.6455 63.9059 23.611 63.9059 24.8072V26.2854H61.851H61.551V26.5854V28.2675V28.5675H61.851H63.9059V39.3211V39.6211H64.2059H66.2003Z" fill="black" stroke="black" stroke-width="0.6"/>
<path d="M123.596 60.9434H123.896V60.6434V52.9077C123.907 52.0067 124.235 51.2025 124.824 50.6238C125.413 50.0459 126.283 49.6734 127.417 49.6734C128.254 49.6734 128.913 49.9348 129.36 50.3744C129.807 50.8134 130.072 51.4583 130.072 52.281V60.6434V60.9434H130.372H132.367H132.667V60.6434V52.209C132.667 50.7368 132.187 49.5084 131.323 48.6473C130.459 47.7865 129.237 47.3193 127.801 47.3193C126.285 47.3193 124.884 47.8812 123.896 48.7828V42.6211V42.3211H123.596H121.601H121.301V42.6211V60.6434V60.9434H121.601H123.596Z" fill="black" stroke="black" stroke-width="0.6"/>
<path d="M118.912 53.1096H119.247L119.21 52.7767C119.023 51.0785 118.332 49.7082 117.253 48.7631C116.175 47.8189 114.731 47.3191 113.072 47.3191C111.276 47.3191 109.628 47.9188 108.429 49.0928C107.228 50.2687 106.501 51.9963 106.501 54.2033C106.501 56.0996 107.071 57.8507 108.197 59.1322C109.328 60.4188 110.999 61.2076 113.145 61.2076C114.851 61.2076 116.279 60.702 117.33 59.7446C118.379 58.7877 119.023 57.405 119.21 55.7018L119.246 55.3691H118.912H116.965H116.71L116.669 55.6208C116.497 56.6754 116.083 57.4863 115.494 58.0322C114.907 58.5758 114.123 58.8774 113.169 58.8774C112.054 58.8774 111.048 58.4733 110.32 57.7011C109.592 56.9287 109.119 55.7638 109.119 54.2033C109.119 52.7559 109.524 51.6187 110.201 50.8478C110.875 50.0808 111.841 49.6493 113.024 49.6493C114.028 49.6493 114.856 49.9639 115.471 50.5107C116.088 51.0585 116.51 51.8568 116.669 52.8567L116.709 53.1096H116.965H118.912Z" fill="black" stroke="black" stroke-width="0.6"/>
<path d="M105.188 60.9432H105.488V60.6432V58.9612V58.6612H105.188H103.77C103.238 58.6612 102.878 58.5107 102.647 58.2616C102.413 58.0087 102.268 57.6066 102.268 57.0148V49.8896H105.404H105.704V49.5896V47.9075V47.6075H105.404H102.268V43.5581V43.2581H101.968H99.9733H99.6733V43.5581V47.6075H97.6184H97.3184V47.9075V49.5896V49.8896H97.6184H99.6733V57.0148C99.6733 58.2475 100.02 59.2434 100.736 59.9288C101.45 60.6121 102.484 60.9432 103.77 60.9432H105.188Z" fill="black" stroke="black" stroke-width="0.6"/>
<path d="M89.7994 54.9002L89.8316 55.1984C89.8542 55.196 89.8768 55.1936 89.8995 55.1911C90.6505 55.1103 91.3916 55.0306 92.0149 54.8793C92.384 54.7897 92.7353 54.6699 93.0318 54.4947V55.5009C93.0318 56.4769 92.6566 57.3025 92.0154 57.8863C91.3725 58.4718 90.4446 58.8294 89.3188 58.8294C88.4474 58.8294 87.7572 58.6282 87.2938 58.2991C86.8394 57.9763 86.5911 57.5244 86.5911 56.9667C86.5911 56.6157 86.6839 56.3594 86.8324 56.1617C86.984 55.96 87.2097 55.7982 87.5079 55.6675C88.1159 55.401 88.9445 55.2956 89.8321 55.1984L89.7994 54.9002ZM89.7994 54.9002L89.8562 54.894C91.1649 54.7532 92.3658 54.6239 93.0318 54.1362L93.3318 55.5009C93.3318 57.6155 91.6978 59.1294 89.3188 59.1294C87.4926 59.1294 86.2911 58.2883 86.2911 56.9667C86.2911 55.3327 88.0453 55.0924 89.7994 54.9002ZM89.6498 52.9676L89.6498 52.9676L89.6483 52.9677C88.3761 53.0998 86.9774 53.3072 85.8937 53.8744C85.3463 54.1609 84.8684 54.5444 84.5283 55.0654C84.1869 55.5884 83.9966 56.2311 83.9966 57.0148C83.9966 58.267 84.4973 59.3095 85.3939 60.0327C86.2839 60.7506 87.54 61.1355 89.0305 61.1355C90.9169 61.1355 92.301 60.4919 93.1822 59.3919C93.2684 59.8011 93.4588 60.1477 93.7636 60.4108C94.1895 60.7785 94.7936 60.9433 95.5185 60.9433H96.6479H96.9479V60.6433V59.0092V58.7092H96.6479H95.927C95.757 58.7092 95.6824 58.6669 95.6495 58.6349C95.6182 58.6044 95.5782 58.5381 95.5782 58.3845V52.1848C95.5782 50.76 95.0417 49.5352 94.0757 48.6693C93.1124 47.8058 91.7447 47.3191 90.1118 47.3191C86.9748 47.3191 84.5454 49.1495 84.2864 51.8437L84.2548 52.1724H84.585H86.5554H86.8156L86.8524 51.9148C87.0413 50.5926 88.3137 49.6253 90.0638 49.6253C90.9673 49.6253 91.706 49.8904 92.2163 50.3206C92.722 50.7468 93.0194 51.3474 93.0317 52.063C93.0268 52.2208 92.9657 52.3289 92.8427 52.4227C92.7031 52.5292 92.4806 52.6175 92.1618 52.6878C91.7014 52.7894 91.1262 52.8383 90.47 52.894C90.2087 52.9162 89.9346 52.9395 89.6498 52.9676Z" fill="black" stroke="black" stroke-width="0.6"/>
<path d="M64.7166 60.9433H65.0166V60.6433V52.9076C65.0282 52.0065 65.3556 51.202 65.9425 50.6232C66.5286 50.0453 67.3929 49.6733 68.5133 49.6733C69.3 49.6733 69.9083 49.9266 70.3201 50.3487C70.7328 50.7718 70.9768 51.394 70.9768 52.1848V60.6433V60.9433H71.2768H73.2472H73.5472V60.6433V52.9076C73.5587 52.0065 73.8861 51.202 74.4731 50.6232C75.0592 50.0453 75.9235 49.6733 77.0439 49.6733C77.8305 49.6733 78.4388 49.9266 78.8506 50.3487C79.2633 50.7718 79.5073 51.394 79.5073 52.1848V60.6433V60.9433H79.8073H81.8018H82.1018V60.6433V52.1127C82.1018 50.7479 81.646 49.5466 80.8164 48.6847C79.9856 47.8214 78.7995 47.3191 77.3803 47.3191C75.5404 47.3191 73.8519 48.196 72.8945 49.5304C72.1129 48.1635 70.6746 47.3191 68.8498 47.3191C67.2225 47.3191 65.7108 47.9904 64.7247 49.0873L64.6067 47.8784L64.5803 47.6075H64.3081H62.7222H62.4222V47.9075V60.6433V60.9433H62.7222H64.7166Z" fill="black" stroke="black" stroke-width="0.6"/>
<defs>
<linearGradient id="paint0_linear_1106_327" x1="10.3176" y1="-4.17194" x2="10.3176" y2="24.4115" gradientUnits="userSpaceOnUse">
<stop offset="0.140625" stop-color="#0065FF"/>
<stop offset="1" stop-color="#01DBCD"/>
</linearGradient>
<linearGradient id="paint1_linear_1106_327" x1="43.8049" y1="-4.17194" x2="43.8049" y2="24.4115" gradientUnits="userSpaceOnUse">
<stop stop-color="#01DBCD"/>
<stop offset="1" stop-color="#0065FF"/>
</linearGradient>
<linearGradient id="paint2_linear_1106_327" x1="0.850269" y1="18.1644" x2="29.7468" y2="46.7816" gradientUnits="userSpaceOnUse">
<stop stop-color="#01DBCD"/>
<stop offset="1" stop-color="#0065FF"/>
</linearGradient>
<linearGradient id="paint3_linear_1106_327" x1="60.186" y1="40.7154" x2="-8.95751" y2="40.7154" gradientUnits="userSpaceOnUse">
<stop stop-color="#01DBCD"/>
<stop offset="1" stop-color="#0065FF"/>
</linearGradient>
</defs>
</svg>
