<svg width="161" height="65" viewBox="0 0 161 65" fill="none" xmlns="http://www.w3.org/2000/svg">
<path d="M10.9807 14.5903C14.73 14.5903 17.7694 11.5213 17.7694 7.73536C17.7694 3.94947 14.73 0.880402 10.9807 0.880402C7.23142 0.880402 4.19202 3.94947 4.19202 7.73536C4.19202 11.5213 7.23142 14.5903 10.9807 14.5903Z" fill="url(#paint0_linear_130_64)"/>
<path d="M44.4681 14.5903C48.2174 14.5903 51.2568 11.5213 51.2568 7.73536C51.2568 3.94947 48.2174 0.880402 44.4681 0.880402C40.7188 0.880402 37.6794 3.94947 37.6794 7.73536C37.6794 11.5213 40.7188 14.5903 44.4681 14.5903Z" fill="url(#paint1_linear_130_64)"/>
<path d="M26.0016 23.8935L21.5162 28.416L19.9448 26.8292C18.516 25.3865 16.607 24.5904 14.5835 24.5904C12.5601 24.5904 10.6578 25.3879 9.22227 26.8292C7.7935 28.2787 7.00377 30.1997 7.00377 32.2428C7.00377 34.286 7.7935 36.2069 9.22227 37.6564L12.1363 40.5989C10.9161 41.8243 7.88767 45.2817 5.7055 43.1502C5.6907 43.1434 5.67725 43.1285 5.66245 43.1135L4.74357 42.1789C-0.697074 36.6919 -0.697074 27.7924 4.74357 22.3054C7.46389 19.5586 11.0237 18.1892 14.5835 18.1892C18.1434 18.1892 21.7113 19.5586 24.4316 22.3054L26.003 23.8922L26.0016 23.8935Z" fill="url(#paint2_linear_130_64)"/>
<path d="M16.6218 45.1279L12.1364 49.6503L7.65769 45.1279L5.70557 43.1499C7.88774 45.2814 10.9161 41.8241 12.1364 40.5987L16.6218 45.1279Z" fill="#016CFC"/>
<path d="M12.1349 40.5987C16.7495 35.9825 30.2583 22.3052 30.2583 22.3052C35.6922 16.8183 44.5056 16.8183 49.9463 22.3052C52.6666 25.0521 54.0227 28.6467 54.0227 32.2413C54.0227 35.8358 52.6666 39.4304 49.9463 42.1773L27.3442 65L22.8588 60.4776L27.3442 55.9551L38.06 45.1266L45.4595 37.6549C46.895 36.2053 47.6847 34.2926 47.6847 32.2413C47.6847 30.1899 46.895 28.2772 45.4595 26.8276C44.0307 25.3849 42.1297 24.5875 40.0982 24.5875C38.0667 24.5875 36.1725 25.3849 34.737 26.8276L16.6217 45.1279" fill="url(#paint3_linear_130_64)"/>
<path d="M87.1888 18.7192C83.4161 18.7192 80.917 15.9558 80.917 12.1351C80.917 7.78567 83.7285 5.43076 86.9485 5.43076C90.4568 5.43076 92.7156 7.78567 92.7877 11.8707V12.4234H82.9115C83.0316 15.1388 84.6176 16.9891 87.1888 16.9891C88.967 16.9891 90.2646 16.1 90.7932 14.4419H92.7396C92.1629 17.0611 90.0963 18.7192 87.1888 18.7192ZM83.0316 10.7654H90.6971C90.3366 8.53059 88.991 7.1609 86.9485 7.1609C84.93 7.1609 83.4401 8.48253 83.0316 10.7654Z" fill="black"/>
<path d="M68.2798 18.455H66.0691L62.2964 5.71921H64.3389L67.2705 15.9799L70.1061 5.71921H71.8362L74.6717 15.9318L77.5793 5.71921H79.6218L75.8492 18.455H73.6625L70.9711 8.74695L68.2798 18.455Z" fill="black"/>
<path d="M155.651 40.2019H153.657V27.4661H155.243L155.483 29.8931C156.3 28.2591 157.79 27.394 159.904 27.394H160.337V29.3645H159.904C157.213 29.3645 155.651 30.9024 155.651 33.5216V40.2019Z" fill="black"/>
<path d="M144.496 40.466C141.396 40.466 139.618 38.5676 139.618 35.9724V27.4659H141.612V35.9003C141.612 37.7266 142.886 38.7118 144.688 38.7118C147.067 38.7118 148.365 37.1259 148.389 35.2035V27.4659H150.383V40.2017H148.797L148.629 38.2793C147.788 39.7211 146.25 40.466 144.496 40.466Z" fill="black"/>
<path d="M131.002 40.4659C126.917 40.4659 124.754 37.5583 124.754 33.7135C124.754 29.4603 127.542 27.1775 131.002 27.1775C135.063 27.1775 137.25 30.1091 137.25 33.7135C137.25 38.111 134.582 40.4659 131.002 40.4659ZM131.002 38.7358C133.717 38.7358 135.207 36.477 135.207 33.7135C135.207 30.854 133.549 28.9076 131.002 28.9076C128.455 28.9076 126.797 30.854 126.797 33.7135C126.797 36.9816 128.695 38.7358 131.002 38.7358Z" fill="black"/>
<path d="M114.152 45.0076H112.109V43.3255H114.152C115.449 43.3255 116.002 42.869 116.29 42.1L116.987 40.2017H116.506L111.46 27.4659H113.599L117.732 38.2072L121.721 27.4659H123.763L118.044 42.869C117.516 44.2627 116.338 45.0076 114.152 45.0076Z" fill="black"/>
<path d="M97.4574 40.4661C94.0452 40.4661 91.6663 37.7267 91.6663 33.7618C91.6663 29.869 94.0212 27.1777 97.4334 27.1777C99.3558 27.1777 100.966 28.0187 101.879 29.3644V22.1795H103.873V40.2018H102.287L102.071 37.7507C101.23 39.4088 99.548 40.4661 97.4574 40.4661ZM97.7698 38.736C100.197 38.736 101.879 36.6694 101.879 33.7137C101.879 30.8542 100.245 28.8838 97.89 28.8838C95.4389 28.8838 93.7328 30.8782 93.7328 33.7618C93.7328 36.6934 95.3909 38.736 97.7698 38.736Z" fill="black"/>
<path d="M80.4173 40.2016H78.4229V27.4658H80.0088L80.2011 29.4122C81.0661 28.0666 82.7242 27.1775 84.6225 27.1775C87.3619 27.1775 89.1882 28.9557 89.1882 31.7671V40.2016H87.1937V31.8392C87.1937 30.061 86.0403 28.9316 84.1179 28.9316C81.8351 28.9316 80.4413 30.5176 80.4173 32.464V40.2016Z" fill="black"/>
<path d="M74.1756 25.3266C73.3346 25.3266 72.6858 24.6778 72.6858 23.8368C72.6858 22.9957 73.3346 22.3709 74.1756 22.3709C75.0167 22.3709 75.6414 22.9957 75.6414 23.8368C75.6414 24.6778 75.0167 25.3266 74.1756 25.3266ZM75.1609 40.201H73.1664V27.4652H75.1609V40.201Z" fill="black"/>
<path d="M66.8635 40.2018H64.8691V29.1481H62.5142V27.466H64.8691V25.6878C64.8691 23.405 66.1427 22.1795 68.4976 22.1795H71.3331V23.8616H68.4976C67.4403 23.8616 66.8635 24.5104 66.8635 25.6878V27.466H70.9967V29.1481H66.8635V40.2018Z" fill="black"/>
<path d="M124.259 61.5239H122.265V43.5016H124.259V50.4222C125.172 49.2688 126.734 48.4998 128.464 48.4998C131.204 48.4998 133.03 50.278 133.03 53.0895V61.5239H131.036V53.1616C131.036 51.3834 129.882 50.254 128.08 50.254C125.677 50.254 124.283 51.8399 124.259 53.7863V61.5239Z" fill="black"/>
<path d="M113.808 61.788C109.675 61.788 107.464 58.7603 107.464 55.0838C107.464 50.8065 110.275 48.4996 113.736 48.4996C116.932 48.4996 119.214 50.422 119.575 53.69H117.628C117.292 51.5754 115.826 50.2297 113.688 50.2297C111.164 50.2297 109.482 52.08 109.482 55.0838C109.482 58.3278 111.453 60.0579 113.832 60.0579C115.874 60.0579 117.268 58.7603 117.628 56.5496H119.575C119.214 59.8416 117.1 61.788 113.808 61.788Z" fill="black"/>
<path d="M105.851 61.524H104.433C101.958 61.524 100.637 60.2504 100.637 57.8955V50.4703H98.2817V48.7882H100.637V44.4388H102.631V48.7882H106.067V50.4703H102.631V57.8955C102.631 59.169 103.256 59.8419 104.433 59.8419H105.851V61.524Z" fill="black"/>
<path d="M89.6938 61.716C86.8102 61.716 84.96 60.2261 84.96 57.8952C84.96 54.9636 87.7955 54.4109 90.3426 54.1466C92.289 53.9544 93.9711 53.9784 93.9951 52.9451C93.9711 51.3351 92.6495 50.2057 90.7271 50.2057C88.8768 50.2057 87.435 51.239 87.2188 52.7529H85.2483C85.4886 50.2538 87.7474 48.4996 90.7752 48.4996C93.9231 48.4996 95.9415 50.3739 95.9415 53.0653V59.2649C95.9415 59.6734 96.1578 59.8897 96.5904 59.8897H97.3112V61.5237H96.1818C94.8122 61.5237 94.0913 60.8989 94.0913 59.7215V59.337C93.3463 60.8028 91.9046 61.716 89.6938 61.716ZM89.9822 60.0098C92.3611 60.0098 93.9951 58.496 93.9951 56.3814V54.7233C93.4425 55.4682 92.0247 55.6124 90.4628 55.7806C88.7086 55.9729 86.9544 56.2131 86.9544 57.8472C86.9544 59.1688 88.1559 60.0098 89.9822 60.0098Z" fill="black"/>
<path d="M65.38 61.5237H63.3855V48.788H64.9715L65.1637 50.7584C66.0288 49.3887 67.6868 48.4996 69.5131 48.4996C71.4355 48.4996 72.8772 49.4848 73.526 51.0227C74.3431 49.5329 76.0972 48.4996 78.0436 48.4996C80.735 48.4996 82.4651 50.398 82.4651 52.9932V61.5237H80.4706V53.0653C80.4706 51.3591 79.4133 50.2538 77.7072 50.2538C75.3283 50.2538 73.9346 51.8397 73.9105 53.7861V61.5237H71.9401V53.0653C71.9401 51.3591 70.8828 50.2538 69.1767 50.2538C66.7977 50.2538 65.404 51.8397 65.38 53.7861V61.5237Z" fill="black"/>
<defs>
<linearGradient id="paint0_linear_130_64" x1="10.9807" y1="-3.29153" x2="10.9807" y2="25.2919" gradientUnits="userSpaceOnUse">
<stop offset="0.140625" stop-color="#0065FF"/>
<stop offset="1" stop-color="#01DBCD"/>
</linearGradient>
<linearGradient id="paint1_linear_130_64" x1="44.4681" y1="-3.29153" x2="44.4681" y2="25.2919" gradientUnits="userSpaceOnUse">
<stop stop-color="#01DBCD"/>
<stop offset="1" stop-color="#0065FF"/>
</linearGradient>
<linearGradient id="paint2_linear_130_64" x1="1.51335" y1="19.0451" x2="30.4099" y2="47.6622" gradientUnits="userSpaceOnUse">
<stop stop-color="#01DBCD"/>
<stop offset="1" stop-color="#0065FF"/>
</linearGradient>
<linearGradient id="paint3_linear_130_64" x1="60.8491" y1="41.5958" x2="-8.29442" y2="41.5958" gradientUnits="userSpaceOnUse">
<stop stop-color="#01DBCD"/>
<stop offset="1" stop-color="#0065FF"/>
</linearGradient>
</defs>
</svg>
