<svg width="278" height="82" viewBox="0 0 278 82" fill="none" xmlns="http://www.w3.org/2000/svg">
<path fill-rule="evenodd" clip-rule="evenodd" d="M267.364 81.9901H11.1478C5.51263 81.9901 0.897217 77.3795 0.897217 71.7395V10.2506C0.897217 4.61541 5.5078 0 11.1478 0H267.364C272.999 0 277.614 4.61058 277.614 10.2506V71.7444C277.614 77.3795 273.004 81.9901 267.364 81.9901Z" fill="#FBFBFB"/>
<path d="M116.388 63.1178C121.222 63.1178 125.14 59.2143 125.14 54.3992C125.14 49.5841 121.222 45.6807 116.388 45.6807C111.554 45.6807 107.636 49.5841 107.636 54.3992C107.636 59.2143 111.554 63.1178 116.388 63.1178Z" fill="black"/>
<path d="M135.478 63.1178C140.312 63.1178 144.23 59.2143 144.23 54.3992C144.23 49.5841 140.312 45.6807 135.478 45.6807C130.644 45.6807 126.726 49.5841 126.726 54.3992C126.726 59.2143 130.644 63.1178 135.478 63.1178Z" fill="black"/>
<path fill-rule="evenodd" clip-rule="evenodd" d="M267.364 0.00439453H11.1478C5.51263 0.00439453 0.897217 4.61497 0.897217 10.255V71.7488C0.897217 77.3839 5.5078 81.9993 11.1478 81.9993H267.364C272.999 81.9993 277.614 77.3887 277.614 71.7488V10.2501C277.614 4.61497 273.004 0.00439453 267.364 0.00439453ZM267.364 1.64274C272.11 1.64274 275.971 5.50422 275.971 10.2501V71.7439C275.971 76.4898 272.11 80.3513 267.364 80.3513H11.1478C6.40188 80.3513 2.5404 76.4898 2.5404 71.7439V10.2501C2.5404 5.50422 6.40188 1.64274 11.1478 1.64274H267.364Z" fill="#CCCED3"/>
<path fill-rule="evenodd" clip-rule="evenodd" d="M98.0962 20.9993C98.0962 22.7198 97.5887 24.0827 96.569 25.1073C95.4091 26.3203 93.9061 26.9244 92.0502 26.9244C90.2766 26.9244 88.7639 26.3107 87.5266 25.0783C86.2798 23.8507 85.6611 22.3187 85.6611 20.5015C85.6611 18.6795 86.2798 17.1523 87.5266 15.9248C88.7639 14.6972 90.2766 14.0786 92.0502 14.0786C92.9298 14.0786 93.7756 14.2526 94.573 14.5909C95.3753 14.934 96.018 15.3932 96.4965 15.9634L95.4139 17.046C94.602 16.0746 93.4808 15.5865 92.0454 15.5865C90.7502 15.5865 89.6338 16.0408 88.6865 16.9542C87.7393 17.8676 87.2705 19.0468 87.2705 20.5015C87.2705 21.9562 87.7441 23.1355 88.6865 24.0489C89.6289 24.9623 90.7502 25.4117 92.0454 25.4117C93.4179 25.4117 94.5633 24.9526 95.4816 24.0392C96.076 23.4399 96.4192 22.6135 96.511 21.5503H92.0454V20.0714H98.0044C98.0672 20.3904 98.0962 20.6997 98.0962 20.9993Z" fill="#010202"/>
<path d="M98.0962 20.9993C98.0962 22.7198 97.5887 24.0827 96.569 25.1073C95.4091 26.3203 93.9061 26.9244 92.0502 26.9244C90.2766 26.9244 88.7639 26.3107 87.5266 25.0783C86.2798 23.8507 85.6611 22.3187 85.6611 20.5015C85.6611 18.6795 86.2798 17.1523 87.5266 15.9248C88.7639 14.6972 90.2766 14.0786 92.0502 14.0786C92.9298 14.0786 93.7756 14.2526 94.573 14.5909C95.3753 14.934 96.018 15.3932 96.4965 15.9634L95.4139 17.046C94.602 16.0746 93.4808 15.5865 92.0454 15.5865C90.7502 15.5865 89.6338 16.0408 88.6865 16.9542C87.7393 17.8676 87.2705 19.0468 87.2705 20.5015C87.2705 21.9562 87.7441 23.1355 88.6865 24.0489C89.6289 24.9623 90.7502 25.4117 92.0454 25.4117C93.4179 25.4117 94.5633 24.9526 95.4816 24.0392C96.076 23.4399 96.4192 22.6135 96.511 21.5503H92.0454V20.0714H98.0044C98.0672 20.3904 98.0962 20.6997 98.0962 20.9993Z" stroke="#010202" stroke-width="0.207191"/>
<path fill-rule="evenodd" clip-rule="evenodd" d="M107.545 15.8614H101.944V19.7615H106.989V21.2404H101.944V25.1405H107.545V26.6532H100.363V14.3535H107.545V15.8614Z" fill="#010202"/>
<path d="M107.545 15.8614H101.944V19.7615H106.989V21.2404H101.944V25.1405H107.545V26.6532H100.363V14.3535H107.545V15.8614Z" stroke="#010202" stroke-width="0.207191"/>
<path fill-rule="evenodd" clip-rule="evenodd" d="M114.204 26.6483H112.624V15.8613H109.188V14.3486H117.64V15.8613H114.204V26.6483Z" fill="#010202"/>
<path d="M114.204 26.6483H112.624V15.8613H109.188V14.3486H117.64V15.8613H114.204V26.6483Z" stroke="#010202" stroke-width="0.207191"/>
<path fill-rule="evenodd" clip-rule="evenodd" d="M123.754 26.6483H125.335V14.3486H123.754V26.6483Z" fill="#010202"/>
<path d="M123.754 26.6483H125.335V14.3486H123.754V26.6483Z" stroke="#010202" stroke-width="0.207191"/>
<path fill-rule="evenodd" clip-rule="evenodd" d="M132.347 26.6483H130.767V15.8613H127.33V14.3486H135.783V15.8613H132.347V26.6483Z" fill="#010202"/>
<path d="M132.347 26.6483H130.767V15.8613H127.33V14.3486H135.783V15.8613H132.347V26.6483Z" stroke="#010202" stroke-width="0.207191"/>
<path fill-rule="evenodd" clip-rule="evenodd" d="M143.926 24.0295C144.835 24.9526 145.951 25.4117 147.271 25.4117C148.585 25.4117 149.697 24.9526 150.61 24.0295C151.519 23.1064 151.978 21.932 151.978 20.5015C151.978 19.071 151.519 17.8917 150.61 16.9735C149.702 16.0504 148.585 15.5913 147.271 15.5913C145.951 15.5913 144.84 16.0552 143.931 16.9735C143.023 17.8917 142.563 19.071 142.563 20.5015C142.563 21.932 143.018 23.1064 143.926 24.0295ZM151.78 25.0589C150.567 26.3058 149.068 26.9244 147.271 26.9244C145.473 26.9244 143.97 26.3058 142.762 25.0589C141.553 23.8169 140.949 22.2993 140.949 20.5015C140.949 18.7037 141.553 17.1813 142.762 15.9392C143.97 14.6972 145.468 14.0737 147.266 14.0737C149.054 14.0737 150.552 14.6972 151.765 15.9441C152.978 17.1909 153.582 18.7085 153.582 20.4967C153.592 22.2993 152.988 23.8169 151.78 25.0589Z" fill="#010202"/>
<path d="M143.926 24.0295C144.835 24.9526 145.951 25.4117 147.271 25.4117C148.585 25.4117 149.697 24.9526 150.61 24.0295C151.519 23.1064 151.978 21.932 151.978 20.5015C151.978 19.071 151.519 17.8917 150.61 16.9735C149.702 16.0504 148.585 15.5913 147.271 15.5913C145.951 15.5913 144.84 16.0552 143.931 16.9735C143.023 17.8917 142.563 19.071 142.563 20.5015C142.563 21.932 143.018 23.1064 143.926 24.0295ZM151.78 25.0589C150.567 26.3058 149.068 26.9244 147.271 26.9244C145.473 26.9244 143.97 26.3058 142.762 25.0589C141.553 23.8169 140.949 22.2993 140.949 20.5015C140.949 18.7037 141.553 17.1813 142.762 15.9392C143.97 14.6972 145.468 14.0737 147.266 14.0737C149.054 14.0737 150.552 14.6972 151.765 15.9441C152.978 17.1909 153.582 18.7085 153.582 20.4967C153.592 22.2993 152.988 23.8169 151.78 25.0589Z" stroke="#010202" stroke-width="0.207191"/>
<path fill-rule="evenodd" clip-rule="evenodd" d="M155.811 26.6483V14.3486H157.734L163.713 23.9129H163.78L163.713 21.5448V14.3486H165.298V26.6483H163.645L157.391 16.6153H157.323L157.391 18.9882V26.6483H155.811Z" fill="#010202"/>
<path d="M155.811 26.6483V14.3486H157.734L163.713 23.9129H163.78L163.713 21.5448V14.3486H165.298V26.6483H163.645L157.391 16.6153H157.323L157.391 18.9882V26.6483H155.811Z" stroke="#010202" stroke-width="0.207191"/>
<path d="M218.837 36.9668H215.014V62.5908H218.837V36.9668Z" fill="black"/>
<path fill-rule="evenodd" clip-rule="evenodd" d="M249.462 46.1973L245.079 57.3081H244.943L240.396 46.1973H236.273L243.097 61.7205L239.207 70.3618H243.194L253.71 46.1973H249.462Z" fill="black"/>
<path fill-rule="evenodd" clip-rule="evenodd" d="M228.232 45.6372C225.462 45.6372 222.596 46.8551 221.408 49.5615L224.8 50.9776C225.525 49.5615 226.878 49.0976 228.294 49.0976C230.271 49.0976 232.282 50.2865 232.315 52.3936V52.6594C231.619 52.2631 230.141 51.6735 228.328 51.6735C224.665 51.6735 220.944 53.684 220.944 57.4392C220.944 60.8705 223.945 63.0791 227.309 63.0791C229.875 63.0791 231.296 61.9241 232.185 60.5709H232.315V62.5475H236.008V52.7222C236.013 48.1745 232.615 45.6372 228.232 45.6372Z" fill="black"/>
<path fill-rule="evenodd" clip-rule="evenodd" d="M204.497 36.9668H195.334V62.5908H199.157V52.8815H204.497C208.736 52.8815 212.902 49.8126 212.902 44.9218C212.902 40.0357 208.736 36.9668 204.497 36.9668Z" fill="black"/>
<path fill-rule="evenodd" clip-rule="evenodd" d="M158.909 47.6283H158.778C157.918 46.6037 156.265 45.6758 154.192 45.6758C149.833 45.6758 145.836 49.5083 145.836 54.4282C145.836 59.3142 149.833 63.1129 154.192 63.1129C156.27 63.1129 157.923 62.1898 158.778 61.1362H158.909V62.3879C158.909 65.7226 157.125 67.506 154.255 67.506C151.911 67.506 150.456 65.8241 149.862 64.4033L146.527 65.7903C147.484 68.1004 150.026 70.9422 154.255 70.9422C158.749 70.9422 162.543 68.2986 162.543 61.8612V46.2074H158.909V47.6283Z" fill="black"/>
<path fill-rule="evenodd" clip-rule="evenodd" d="M165.186 62.5908H169.018V36.9668H165.186V62.5908Z" fill="black"/>
<path fill-rule="evenodd" clip-rule="evenodd" d="M186.552 51.2288C185.827 49.2812 183.614 45.6807 179.09 45.6807C174.601 45.6807 170.87 49.2183 170.87 54.3992C170.87 59.2853 174.567 63.1178 179.521 63.1178C183.517 63.1178 185.827 60.6723 186.789 59.2514L183.817 57.27C182.821 58.7247 181.473 59.6816 179.521 59.6816C177.573 59.6816 176.186 58.7875 175.297 57.038L186.954 52.2148L186.552 51.2288Z" fill="black"/>
<path fill-rule="evenodd" clip-rule="evenodd" d="M93.6836 48.3576V52.0547H102.537C102.272 54.1377 101.576 55.6553 100.522 56.7088C99.2317 57.9992 97.2164 59.4153 93.6836 59.4153C88.2321 59.4153 83.9743 55.0221 83.9743 49.5755C83.9743 44.1288 88.2369 39.7357 93.6836 39.7357C96.622 39.7357 98.7678 40.8908 100.353 42.3745L102.963 39.7647C100.749 37.6527 97.8109 36.0337 93.6836 36.0337C86.2216 36.0337 79.9485 42.1135 79.9485 49.5755C79.9485 57.0375 86.2216 63.1124 93.6836 63.1124C97.7142 63.1124 100.749 61.793 103.127 59.3138C105.568 56.8683 106.331 53.437 106.331 50.6629C106.331 49.8074 106.268 49.0148 106.133 48.3527L93.6836 48.3576Z" fill="black"/>
<path fill-rule="evenodd" clip-rule="evenodd" d="M46.6205 40.9931L21.7939 16.2148C21.5087 16.79 21.3396 17.4956 21.3396 18.351V63.6449C21.3396 64.51 21.5136 65.2301 21.8084 65.8052L46.6205 40.9931Z" fill="black"/>
<path fill-rule="evenodd" clip-rule="evenodd" d="M21.8662 16.0555C21.876 16.0309 21.8907 16.0113 21.9054 15.9868C21.8907 16.0113 21.8809 16.0358 21.8662 16.0555Z" fill="black"/>
<path fill-rule="evenodd" clip-rule="evenodd" d="M48.056 39.5572L55.7017 31.9116L26.5497 15.3493C25.7232 14.8756 24.9451 14.6533 24.2492 14.6533C23.8964 14.6533 23.5726 14.7161 23.2729 14.8273L48.056 39.5572Z" fill="black"/>
<path fill-rule="evenodd" clip-rule="evenodd" d="M66.4833 38.0398L57.5473 32.9604L49.5054 41.0024L57.5473 49.025L66.4833 43.9456C69.3444 42.3266 69.3444 39.6637 66.4833 38.0398Z" fill="black"/>
<path fill-rule="evenodd" clip-rule="evenodd" d="M48.0754 42.4429L23.3455 67.1825C24.2299 67.4821 25.3366 67.3371 26.5497 66.6509L55.721 50.0692L48.0754 42.4429Z" fill="black"/>
<path fill-rule="evenodd" clip-rule="evenodd" d="M21.842 65.8823C21.958 66.095 22.0885 66.2883 22.2383 66.4526C22.0885 66.2786 21.9484 66.095 21.842 65.8823Z" fill="black"/>
<path d="M116.389 49.1172C113.75 49.1172 111.469 51.263 111.469 54.3995C111.469 57.5023 113.746 59.6867 116.389 59.6867C119.033 59.6867 121.309 57.5071 121.309 54.3995C121.309 51.263 119.033 49.1172 116.389 49.1172Z" fill="white"/>
<path d="M140.399 54.3995C140.399 51.263 138.123 49.1172 135.479 49.1172C132.84 49.1172 130.559 51.263 130.559 54.3995C130.559 57.5023 132.835 59.6867 135.479 59.6867C138.123 59.6867 140.399 57.5023 140.399 54.3995Z" fill="white"/>
<path fill-rule="evenodd" clip-rule="evenodd" d="M154.52 59.6863C151.881 59.6863 149.668 57.4728 149.668 54.4378C149.668 51.364 151.881 49.1216 154.525 49.1216C157.13 49.1216 159.179 51.3689 159.179 54.4378C159.174 57.4728 157.125 59.6815 154.52 59.6863Z" fill="#FBFBFB"/>
<path fill-rule="evenodd" clip-rule="evenodd" d="M204.594 49.3146H199.152V40.5332H204.594C207.455 40.5332 209.079 42.9013 209.079 44.9215C209.074 46.9078 207.45 49.3146 204.594 49.3146Z" fill="white"/>
<path fill-rule="evenodd" clip-rule="evenodd" d="M174.664 54.1384C174.567 50.7699 177.274 49.0542 179.226 49.0542C180.744 49.0542 182.034 49.8178 182.459 50.9052L174.664 54.1384Z" fill="white"/>
<path fill-rule="evenodd" clip-rule="evenodd" d="M227.767 59.6817C226.516 59.6817 224.766 59.0534 224.766 57.5069C224.766 55.5303 226.941 54.7715 228.821 54.7715C230.498 54.7715 231.295 55.134 232.315 55.6269C232.02 57.9999 229.976 59.6817 227.767 59.6817Z" fill="#FBFBFB"/>
</svg>
